<mxfile host="app.diagrams.net" agent="Mozilla/5.0 (Macintosh; Intel Mac OS X 10.15; rv:133.0) Gecko/20100101 Firefox/133.0" version="26.0.6">
  <diagram name="Page-1" id="rx4pCPoRx8Xw2IQ1qcHQ">
    <mxGraphModel dx="1553" dy="1028" grid="1" gridSize="10" guides="1" tooltips="1" connect="1" arrows="1" fold="1" page="1" pageScale="1" pageWidth="850" pageHeight="1100" math="0" shadow="0">
      <root>
        <mxCell id="0" />
        <mxCell id="1" parent="0" />
        <mxCell id="2" value="" style="rounded=0;arcSize=20;strokeWidth=2;glass=0;shadow=1;fillColor=#f8cecc;strokeColor=#b85450;" parent="1" vertex="1">
          <mxGeometry x="150" y="110" width="550" height="120" as="geometry" />
        </mxCell>
        <mxCell id="yXRDH62SA1WlqUhm77Lz-8" value="" style="rounded=0;arcSize=20;strokeWidth=2;shadow=1;fillColor=#d5e8d4;strokeColor=#82b366;" vertex="1" parent="1">
          <mxGeometry x="150" y="240" width="550" height="530" as="geometry" />
        </mxCell>
        <mxCell id="5" value="Wasabi&#xa;Proxy (Axum)" style="whiteSpace=wrap;strokeWidth=2;rounded=1;fontFamily=Inter;fontSource=https%3A%2F%2Ffonts.googleapis.com%2Fcss%3Ffamily%3DInter;fillColor=light-dark(#eff7e8, #1f2f1e);strokeColor=#82b366;fontStyle=1" parent="1" vertex="1">
          <mxGeometry x="360.5" y="260" width="129" height="80" as="geometry" />
        </mxCell>
        <mxCell id="4" value="Battlesnake Server" style="whiteSpace=wrap;strokeWidth=2;rounded=1;fontFamily=Inter;fontSource=https%3A%2F%2Ffonts.googleapis.com%2Fcss%3Ffamily%3DInter;fillColor=light-dark(#fae3e0, #512d2b);strokeColor=#b85450;fontStyle=1" parent="1" vertex="1">
          <mxGeometry x="359" y="133" width="133" height="57" as="geometry" />
        </mxCell>
        <mxCell id="8" value="" style="curved=1;startArrow=none;endArrow=block;exitX=0.25;exitY=1;entryX=0.25;entryY=0;exitDx=0;exitDy=0;entryDx=0;entryDy=0;" parent="1" source="4" target="5" edge="1">
          <mxGeometry relative="1" as="geometry">
            <Array as="points" />
          </mxGeometry>
        </mxCell>
        <mxCell id="yXRDH62SA1WlqUhm77Lz-24" value="&lt;div&gt;&lt;font data-font-src=&quot;https://fonts.googleapis.com/css?family=Roboto&quot;&gt;Game metadata&lt;/font&gt;&lt;/div&gt;" style="edgeLabel;html=1;align=center;verticalAlign=middle;resizable=0;points=[];fontFamily=Roboto;fontSource=https%3A%2F%2Ffonts.googleapis.com%2Fcss%3Ffamily%3DRoboto;textShadow=1;labelBorderColor=none;labelBackgroundColor=none;" vertex="1" connectable="0" parent="8">
          <mxGeometry x="-0.3333" y="2" relative="1" as="geometry">
            <mxPoint x="-14" y="-3" as="offset" />
          </mxGeometry>
        </mxCell>
        <mxCell id="yXRDH62SA1WlqUhm77Lz-11" value="&lt;font data-font-src=&quot;https://fonts.googleapis.com/css?family=Roboto&quot; face=&quot;Roboto&quot; style=&quot;font-size: 16px;&quot;&gt;&lt;b&gt;US-East&lt;br&gt;&lt;/b&gt;&lt;/font&gt;" style="text;html=1;align=right;verticalAlign=bottom;whiteSpace=wrap;rounded=0;spacing=12;fontColor=light-dark(#1e283b, #ededed);" vertex="1" parent="1">
          <mxGeometry x="610" y="190" width="90" height="40" as="geometry" />
        </mxCell>
        <mxCell id="yXRDH62SA1WlqUhm77Lz-12" value="&lt;font face=&quot;Roboto&quot;&gt;&lt;b&gt;Wasabi on GCP&lt;br&gt;&lt;/b&gt;&lt;/font&gt;" style="text;html=1;align=right;verticalAlign=bottom;whiteSpace=wrap;rounded=0;spacing=12;fontSize=16;fontColor=light-dark(#1e283b, #ededed);" vertex="1" parent="1">
          <mxGeometry x="550" y="730" width="150" height="40" as="geometry" />
        </mxCell>
        <mxCell id="yXRDH62SA1WlqUhm77Lz-13" value="" style="whiteSpace=wrap;strokeWidth=2;rounded=1;fontFamily=Inter;fontSource=https%3A%2F%2Ffonts.googleapis.com%2Fcss%3Ffamily%3DInter;fillColor=#fff2cc;strokeColor=#d6b656;arcSize=10;" vertex="1" parent="1">
          <mxGeometry x="170" y="390" width="510" height="330" as="geometry" />
        </mxCell>
        <mxCell id="yXRDH62SA1WlqUhm77Lz-16" value="&lt;font face=&quot;Roboto&quot;&gt;&lt;b&gt;Worker Pool (min 3 workers)&lt;br&gt;&lt;/b&gt;&lt;/font&gt;" style="text;html=1;align=right;verticalAlign=bottom;whiteSpace=wrap;rounded=0;spacing=16;" vertex="1" parent="1">
          <mxGeometry x="480" y="670" width="200" height="50" as="geometry" />
        </mxCell>
        <mxCell id="yXRDH62SA1WlqUhm77Lz-17" value="&lt;font style=&quot;font-size: 28px;&quot; face=&quot;Roboto&quot;&gt;&lt;b&gt;⸱⸱⸱&lt;/b&gt;&lt;/font&gt;" style="text;html=1;align=left;verticalAlign=middle;whiteSpace=wrap;rounded=0;spacing=8;" vertex="1" parent="1">
          <mxGeometry x="580" y="525" width="90" height="40" as="geometry" />
        </mxCell>
        <mxCell id="yXRDH62SA1WlqUhm77Lz-18" value="&lt;font face=&quot;Roboto&quot; style=&quot;font-size: 28px;&quot;&gt;&lt;b&gt;⸱⸱⸱&lt;/b&gt;&lt;/font&gt;" style="text;html=1;align=right;verticalAlign=middle;whiteSpace=wrap;rounded=0;spacing=8;" vertex="1" parent="1">
          <mxGeometry x="190" y="520" width="70" height="40" as="geometry" />
        </mxCell>
        <mxCell id="yXRDH62SA1WlqUhm77Lz-19" value="" style="whiteSpace=wrap;strokeWidth=2;rounded=1;fontFamily=Inter;fontSource=https%3A%2F%2Ffonts.googleapis.com%2Fcss%3Ffamily%3DInter;fillColor=light-dark(#ffe4be, #281d00);strokeColor=#d6b656;" vertex="1" parent="1">
          <mxGeometry x="277.5" y="410" width="290" height="270" as="geometry" />
        </mxCell>
        <mxCell id="yXRDH62SA1WlqUhm77Lz-20" value="Game Exploration with MCGS (Rayon, SIMD)" style="whiteSpace=wrap;strokeWidth=2;rounded=1;fontFamily=Inter;fontSource=https%3A%2F%2Ffonts.googleapis.com%2Fcss%3Ffamily%3DInter;fillColor=#ffe6cc;strokeColor=#d79b00;fontStyle=1" vertex="1" parent="1">
          <mxGeometry x="310" y="430" width="110" height="120" as="geometry" />
        </mxCell>
        <mxCell id="yXRDH62SA1WlqUhm77Lz-21" value="Batch Model Inference (CUDA)" style="whiteSpace=wrap;strokeWidth=2;rounded=1;fontFamily=Inter;fontSource=https%3A%2F%2Ffonts.googleapis.com%2Fcss%3Ffamily%3DInter;fillColor=#ffe6cc;strokeColor=#d79b00;fontStyle=1" vertex="1" parent="1">
          <mxGeometry x="440" y="430" width="100" height="120" as="geometry" />
        </mxCell>
        <mxCell id="yXRDH62SA1WlqUhm77Lz-15" style="edgeStyle=orthogonalEdgeStyle;rounded=0;orthogonalLoop=1;jettySize=auto;html=1;exitX=0.25;exitY=1;exitDx=0;exitDy=0;" edge="1" parent="1" source="5">
          <mxGeometry relative="1" as="geometry">
            <mxPoint x="360" y="430" as="targetPoint" />
            <Array as="points">
              <mxPoint x="393" y="380" />
              <mxPoint x="360" y="380" />
            </Array>
          </mxGeometry>
        </mxCell>
        <mxCell id="yXRDH62SA1WlqUhm77Lz-28" value="&lt;div&gt;(route via hashed game ID)&lt;/div&gt;" style="edgeLabel;html=1;align=center;verticalAlign=middle;resizable=0;points=[];labelBackgroundColor=none;textShadow=1;" vertex="1" connectable="0" parent="yXRDH62SA1WlqUhm77Lz-15">
          <mxGeometry x="-0.7342" y="2" relative="1" as="geometry">
            <mxPoint x="-25" y="5" as="offset" />
          </mxGeometry>
        </mxCell>
        <mxCell id="yXRDH62SA1WlqUhm77Lz-22" style="edgeStyle=orthogonalEdgeStyle;rounded=0;orthogonalLoop=1;jettySize=auto;html=1;entryX=0;entryY=0.5;entryDx=0;entryDy=0;exitX=1;exitY=0.5;exitDx=0;exitDy=0;startArrow=classic;startFill=1;" edge="1" parent="1" source="yXRDH62SA1WlqUhm77Lz-20" target="yXRDH62SA1WlqUhm77Lz-21">
          <mxGeometry relative="1" as="geometry">
            <mxPoint x="435" y="380" as="sourcePoint" />
            <mxPoint x="435" y="420" as="targetPoint" />
          </mxGeometry>
        </mxCell>
        <mxCell id="yXRDH62SA1WlqUhm77Lz-25" value="" style="curved=1;startArrow=none;endArrow=block;entryX=0.678;entryY=-0.025;entryDx=0;entryDy=0;entryPerimeter=0;exitX=0.69;exitY=0.954;exitDx=0;exitDy=0;exitPerimeter=0;" edge="1" parent="1" source="4">
          <mxGeometry relative="1" as="geometry">
            <Array as="points" />
            <mxPoint x="450" y="198" as="sourcePoint" />
            <mxPoint x="450.002" y="260" as="targetPoint" />
          </mxGeometry>
        </mxCell>
        <mxCell id="yXRDH62SA1WlqUhm77Lz-26" value="&lt;div&gt;Move request&lt;/div&gt;" style="edgeLabel;html=1;align=center;verticalAlign=middle;resizable=0;points=[];fontFamily=Roboto;fontSource=https%3A%2F%2Ffonts.googleapis.com%2Fcss%3Ffamily%3DRoboto;labelBackgroundColor=none;textShadow=1;" vertex="1" connectable="0" parent="yXRDH62SA1WlqUhm77Lz-25">
          <mxGeometry x="-0.3333" y="2" relative="1" as="geometry">
            <mxPoint x="23" as="offset" />
          </mxGeometry>
        </mxCell>
        <mxCell id="yXRDH62SA1WlqUhm77Lz-29" value="In-memory&#xa;Game Tree" style="whiteSpace=wrap;strokeWidth=2;rounded=1;fontFamily=Inter;fontSource=https%3A%2F%2Ffonts.googleapis.com%2Fcss%3Ffamily%3DInter;fillColor=#ffe6cc;strokeColor=#d79b00;fontStyle=1" vertex="1" parent="1">
          <mxGeometry x="335" y="590" width="175" height="80" as="geometry" />
        </mxCell>
        <mxCell id="yXRDH62SA1WlqUhm77Lz-30" style="edgeStyle=orthogonalEdgeStyle;rounded=0;orthogonalLoop=1;jettySize=auto;html=1;startArrow=classic;startFill=1;entryX=0.25;entryY=0;entryDx=0;entryDy=0;" edge="1" parent="1" target="yXRDH62SA1WlqUhm77Lz-29">
          <mxGeometry relative="1" as="geometry">
            <mxPoint x="360" y="550" as="sourcePoint" />
            <mxPoint x="400" y="530" as="targetPoint" />
            <Array as="points">
              <mxPoint x="360" y="570" />
              <mxPoint x="379" y="570" />
            </Array>
          </mxGeometry>
        </mxCell>
        <mxCell id="yXRDH62SA1WlqUhm77Lz-32" style="edgeStyle=orthogonalEdgeStyle;rounded=0;orthogonalLoop=1;jettySize=auto;html=1;exitX=0.25;exitY=1;exitDx=0;exitDy=0;" edge="1" parent="1" target="yXRDH62SA1WlqUhm77Lz-17">
          <mxGeometry relative="1" as="geometry">
            <mxPoint x="453" y="340" as="sourcePoint" />
            <mxPoint x="420" y="430" as="targetPoint" />
            <Array as="points">
              <mxPoint x="453" y="365" />
              <mxPoint x="610" y="365" />
            </Array>
          </mxGeometry>
        </mxCell>
      </root>
    </mxGraphModel>
  </diagram>
</mxfile>
